<?xml version="1.0" encoding="UTF-8"?>
<svg xmlns="http://www.w3.org/2000/svg" style="display:none">
  <symbol id="icon-home" viewBox="0 0 24 24">
    <path d="M12 3l9 8h-3v10h-5V14H11v7H6V11H3z"/>
  </symbol>
  <symbol id="icon-search" viewBox="0 0 24 24">
    <path d="M15.5 14h-.79l-.28-.27A6.471 6.471 0 0016 9.5 6.5 6.5 0 109.5 16c1.61 0 3.09-.59 4.23-1.57l.27.28v.79l5 4.99L20.49 19l-4.99-5zM9.5 14C7.01 14 5 11.99 5 9.5S7.01 5 9.5 5 14 7.01 14 9.5 11.99 14 9.5 14z"/>
  </symbol>
  <symbol id="icon-library" viewBox="0 0 24 24">
    <path d="M4 6h18v2H4V6zm0 5h18v2H4v-2zm0 5h18v2H4v-2zM2 4h2v16H2V4z"/>
  </symbol>
  <symbol id="icon-like" viewBox="0 0 24 24">
    <path d="M12 21.35l-1.45-1.32C5.4 15.36 2 12.28 2 8.5 2 6 4 4 6.5 4c1.74 0 3.41.81 4.5 2.09C12.09 4.81 13.76 4 15.5 4 18 4 20 6 20 8.5c0 3.78-3.4 6.86-8.55 11.54L12 21.35z"/>
  </symbol>
  <symbol id="icon-prev" viewBox="0 0 24 24">
    <path d="M6 6h2v12H6zM9.5 12l8.5 6V6z"/>
  </symbol>
  <symbol id="icon-next" viewBox="0 0 24 24">
    <path d="M16 6h2v12h-2zM6 18l8.5-6L6 6z"/>
  </symbol>
  <symbol id="icon-play" viewBox="0 0 24 24">
    <path d="M8 5v14l11-7z"/>
  </symbol>
  <symbol id="icon-pause" viewBox="0 0 24 24">
    <path d="M6 19h4V5H6v14zm8-14v14h4V5h-4z"/>
  </symbol>
  <symbol id="icon-queue" viewBox="0 0 24 24">
    <path d="M3 6h18v2H3V6zm0 4h12v2H3v-2zm0 4h12v2H3v-2zm14 0h4v6h-4v-6z"/>
  </symbol>
  <symbol id="icon-shuffle" viewBox="0 0 24 24">
    <path d="M17 3h4v4h-2V5h-2V3zm2 12h2v4h-4v-2h2v-2zM3 7h6l2 3-2 3H3V7zm8 6l2 3h4v3h-2v-1h-3l-3-5 2-3 1 1-1 2z"/>
  </symbol>
  <symbol id="icon-repeat" viewBox="0 0 24 24">
    <path d="M7 7h11V5l3 3-3 3V9H7v6h5v2H7a2 2 0 01-2-2V9a2 2 0 012-2z"/>
  </symbol>
</svg>
